<mxfile host="app.diagrams.net" modified="2023-05-05T06:02:40.570Z" agent="Mozilla/5.0 (Windows NT 10.0; Win64; x64; rv:109.0) Gecko/20100101 Firefox/112.0" etag="XyLhVuWY9CcmmNKCoZvY" version="21.2.7" type="device">
  <diagram name="Stránka-1" id="eHexwdLHjNQ-IcHHVdi0">
    <mxGraphModel dx="1434" dy="792" grid="1" gridSize="10" guides="1" tooltips="1" connect="1" arrows="1" fold="1" page="1" pageScale="1" pageWidth="827" pageHeight="1169" math="0" shadow="0">
      <root>
        <mxCell id="0" />
        <mxCell id="1" parent="0" />
        <mxCell id="2NYI9WpJi9gs5jyqkTVr-16" style="edgeStyle=orthogonalEdgeStyle;rounded=0;orthogonalLoop=1;jettySize=auto;html=1;entryX=0;entryY=0.5;entryDx=0;entryDy=0;" edge="1" parent="1" source="2NYI9WpJi9gs5jyqkTVr-1" target="2NYI9WpJi9gs5jyqkTVr-3">
          <mxGeometry relative="1" as="geometry" />
        </mxCell>
        <mxCell id="2NYI9WpJi9gs5jyqkTVr-1" value="Sviť červeně nebo zeleně P(0,5)" style="rounded=1;whiteSpace=wrap;html=1;fillColor=#dae8fc;strokeColor=#6c8ebf;" vertex="1" parent="1">
          <mxGeometry x="210" y="200" width="120" height="60" as="geometry" />
        </mxCell>
        <mxCell id="2NYI9WpJi9gs5jyqkTVr-20" style="edgeStyle=orthogonalEdgeStyle;rounded=0;orthogonalLoop=1;jettySize=auto;html=1;entryX=0.5;entryY=0;entryDx=0;entryDy=0;startArrow=none;startFill=0;" edge="1" parent="1" source="2NYI9WpJi9gs5jyqkTVr-2" target="2NYI9WpJi9gs5jyqkTVr-4">
          <mxGeometry relative="1" as="geometry">
            <Array as="points">
              <mxPoint x="520" y="280" />
              <mxPoint x="160" y="280" />
            </Array>
          </mxGeometry>
        </mxCell>
        <mxCell id="2NYI9WpJi9gs5jyqkTVr-2" value="Přepni polovinu LED na žlutou barvu" style="rounded=1;whiteSpace=wrap;html=1;fillColor=#dae8fc;strokeColor=#6c8ebf;" vertex="1" parent="1">
          <mxGeometry x="460" y="200" width="120" height="60" as="geometry" />
        </mxCell>
        <mxCell id="2NYI9WpJi9gs5jyqkTVr-15" style="edgeStyle=orthogonalEdgeStyle;rounded=0;orthogonalLoop=1;jettySize=auto;html=1;entryX=0.5;entryY=0;entryDx=0;entryDy=0;" edge="1" parent="1" source="2NYI9WpJi9gs5jyqkTVr-3" target="2NYI9WpJi9gs5jyqkTVr-1">
          <mxGeometry relative="1" as="geometry">
            <Array as="points">
              <mxPoint x="390" y="170" />
              <mxPoint x="270" y="170" />
            </Array>
          </mxGeometry>
        </mxCell>
        <mxCell id="2NYI9WpJi9gs5jyqkTVr-18" style="edgeStyle=orthogonalEdgeStyle;rounded=0;orthogonalLoop=1;jettySize=auto;html=1;" edge="1" parent="1" source="2NYI9WpJi9gs5jyqkTVr-3" target="2NYI9WpJi9gs5jyqkTVr-2">
          <mxGeometry relative="1" as="geometry" />
        </mxCell>
        <mxCell id="2NYI9WpJi9gs5jyqkTVr-3" value="Vypršel čas?" style="rhombus;whiteSpace=wrap;html=1;fillColor=#d5e8d4;strokeColor=#82b366;" vertex="1" parent="1">
          <mxGeometry x="350" y="190" width="80" height="80" as="geometry" />
        </mxCell>
        <mxCell id="2NYI9WpJi9gs5jyqkTVr-29" style="edgeStyle=orthogonalEdgeStyle;rounded=0;orthogonalLoop=1;jettySize=auto;html=1;entryX=0;entryY=0.5;entryDx=0;entryDy=0;" edge="1" parent="1" source="2NYI9WpJi9gs5jyqkTVr-4" target="2NYI9WpJi9gs5jyqkTVr-11">
          <mxGeometry relative="1" as="geometry" />
        </mxCell>
        <mxCell id="2NYI9WpJi9gs5jyqkTVr-4" value="Uběhly 2 vteřiny?" style="rhombus;whiteSpace=wrap;html=1;fillColor=#d5e8d4;strokeColor=#82b366;" vertex="1" parent="1">
          <mxGeometry x="120" y="320" width="80" height="80" as="geometry" />
        </mxCell>
        <mxCell id="2NYI9WpJi9gs5jyqkTVr-17" style="edgeStyle=orthogonalEdgeStyle;rounded=0;orthogonalLoop=1;jettySize=auto;html=1;" edge="1" parent="1" source="2NYI9WpJi9gs5jyqkTVr-5" target="2NYI9WpJi9gs5jyqkTVr-1">
          <mxGeometry relative="1" as="geometry" />
        </mxCell>
        <mxCell id="2NYI9WpJi9gs5jyqkTVr-5" value="Nastavení odpočtu času" style="rounded=1;whiteSpace=wrap;html=1;fillColor=#ffe6cc;strokeColor=#d79b00;" vertex="1" parent="1">
          <mxGeometry x="70" y="200" width="120" height="60" as="geometry" />
        </mxCell>
        <mxCell id="2NYI9WpJi9gs5jyqkTVr-6" value="Ano" style="text;html=1;strokeColor=none;fillColor=none;align=center;verticalAlign=middle;whiteSpace=wrap;rounded=0;" vertex="1" parent="1">
          <mxGeometry x="590" y="290" width="60" height="30" as="geometry" />
        </mxCell>
        <mxCell id="2NYI9WpJi9gs5jyqkTVr-7" value="&lt;div&gt;Ne&lt;/div&gt;" style="text;html=1;strokeColor=none;fillColor=none;align=center;verticalAlign=middle;whiteSpace=wrap;rounded=0;" vertex="1" parent="1">
          <mxGeometry x="550" y="390" width="60" height="30" as="geometry" />
        </mxCell>
        <mxCell id="2NYI9WpJi9gs5jyqkTVr-9" value="Ano" style="text;html=1;strokeColor=none;fillColor=none;align=center;verticalAlign=middle;whiteSpace=wrap;rounded=0;" vertex="1" parent="1">
          <mxGeometry x="410" y="190" width="60" height="30" as="geometry" />
        </mxCell>
        <mxCell id="2NYI9WpJi9gs5jyqkTVr-31" style="edgeStyle=orthogonalEdgeStyle;rounded=0;orthogonalLoop=1;jettySize=auto;html=1;entryX=0;entryY=0.5;entryDx=0;entryDy=0;" edge="1" parent="1" source="2NYI9WpJi9gs5jyqkTVr-10" target="2NYI9WpJi9gs5jyqkTVr-24">
          <mxGeometry relative="1" as="geometry" />
        </mxCell>
        <mxCell id="2NYI9WpJi9gs5jyqkTVr-10" value="Sviť opačnou barvou než v předchozím případě" style="rounded=1;whiteSpace=wrap;html=1;fillColor=#dae8fc;strokeColor=#6c8ebf;" vertex="1" parent="1">
          <mxGeometry x="400" y="330" width="120" height="60" as="geometry" />
        </mxCell>
        <mxCell id="2NYI9WpJi9gs5jyqkTVr-30" style="edgeStyle=orthogonalEdgeStyle;rounded=0;orthogonalLoop=1;jettySize=auto;html=1;" edge="1" parent="1" source="2NYI9WpJi9gs5jyqkTVr-11" target="2NYI9WpJi9gs5jyqkTVr-10">
          <mxGeometry relative="1" as="geometry" />
        </mxCell>
        <mxCell id="2NYI9WpJi9gs5jyqkTVr-11" value="Nastavení nového odpočtu" style="rounded=1;whiteSpace=wrap;html=1;fillColor=#ffe6cc;strokeColor=#d79b00;" vertex="1" parent="1">
          <mxGeometry x="240" y="330" width="120" height="60" as="geometry" />
        </mxCell>
        <mxCell id="2NYI9WpJi9gs5jyqkTVr-14" value="&lt;div&gt;Ne&lt;/div&gt;" style="text;html=1;strokeColor=none;fillColor=none;align=center;verticalAlign=middle;whiteSpace=wrap;rounded=0;" vertex="1" parent="1">
          <mxGeometry x="330" y="170" width="60" height="30" as="geometry" />
        </mxCell>
        <mxCell id="2NYI9WpJi9gs5jyqkTVr-22" value="Ano" style="text;html=1;strokeColor=none;fillColor=none;align=center;verticalAlign=middle;whiteSpace=wrap;rounded=0;" vertex="1" parent="1">
          <mxGeometry x="200" y="310" width="60" height="30" as="geometry" />
        </mxCell>
        <mxCell id="2NYI9WpJi9gs5jyqkTVr-26" style="edgeStyle=orthogonalEdgeStyle;rounded=0;orthogonalLoop=1;jettySize=auto;html=1;entryX=1;entryY=0.5;entryDx=0;entryDy=0;" edge="1" parent="1" source="2NYI9WpJi9gs5jyqkTVr-24" target="2NYI9WpJi9gs5jyqkTVr-2">
          <mxGeometry relative="1" as="geometry" />
        </mxCell>
        <mxCell id="2NYI9WpJi9gs5jyqkTVr-32" style="edgeStyle=orthogonalEdgeStyle;rounded=0;orthogonalLoop=1;jettySize=auto;html=1;entryX=0.5;entryY=1;entryDx=0;entryDy=0;" edge="1" parent="1" source="2NYI9WpJi9gs5jyqkTVr-24" target="2NYI9WpJi9gs5jyqkTVr-10">
          <mxGeometry relative="1" as="geometry">
            <Array as="points">
              <mxPoint x="600" y="420" />
              <mxPoint x="460" y="420" />
            </Array>
          </mxGeometry>
        </mxCell>
        <mxCell id="2NYI9WpJi9gs5jyqkTVr-24" value="Vypršel čas?" style="rhombus;whiteSpace=wrap;html=1;fillColor=#d5e8d4;strokeColor=#82b366;" vertex="1" parent="1">
          <mxGeometry x="560" y="320" width="80" height="80" as="geometry" />
        </mxCell>
      </root>
    </mxGraphModel>
  </diagram>
</mxfile>
